<svg width="757" height="863" viewBox="0 0 757 863" fill="none" xmlns="http://www.w3.org/2000/svg">
<path d="M693 856.5L696 852V843.5L693 838.5L688.094 835.5L678.5 833.5L667 829.5L658 826L650 821.5L645 819L640.5 815.5L635.5 811.5L631 807L626.5 796.5L624.5 784.5L622.5 777L620.5 770L618.5 764.5C617.5 761.5 615.5 754 615.5 751C615.5 748 615.383 743.249 613 740C610.617 736.751 612 732.5 612 725.999L612.5 715.5L612 698.499L614 669.999V633.499V590.499V541.999V518.999L616.5 500.499L612 437.999V374.499V362.687V347.499V330.999V315.499L610.5 273.999V249.999L609 208.999L607 178.999L605.5 138.999C605.5 113.999 607 105.916 617 94.2491C632 88.5658 614.5 96 630.5 89C645.5 84.8333 644.167 81 662.5 81L673.5 78.5L684.5 73L689.5 68L692 64L693 60.5L688.5 56.5L684.5 53.5L683 51L682 47.5V42.5V39L683 36.5L684 36L685.5 36.5L686.5 39L689.5 42.5L691.25 47.5L696 48.5L700.5 47.5L704.5 44.5L708.5 42.2496L712.5 39.9991L718.5 39L723.5 39.9991L729.5 37.5L735 33.5L739 29.5L742.5 26L745.5 21.5L750.5 16L755 10.5L756 6.5L756.5 3.5L755 1.5L752.5 0H748.5L745.5 0.5L742.5 2L739 3.5L735.5 8L733 10.625L729.5 13.5L727.5 14H723.5L720 13.5L716.5 12.5H712.5H707L701.5 13L696 13.5L690 15L684.5 16.875L678.5 18.5L672.5 20L667 22L661.5 23L655.5 24.5L649.5 26L642 27L633.5 28L628 28.5H620H614H607.5L598 28H591L585.5 27.5L580.5 27H576L571.5 26.5L564.5 27L558.016 26.5L552 26H546.5H538L534 25L529.953 25.5L525 26H518.586L512.902 26.5L509.5 27.5L507.219 29L505 31.5L504.5 35.5V37.5L504 39.5L505 44L507.219 47.5L509.5 49.5L513.5 51L518.586 52L523.5 53L525.5 54.5L528.5 55.5L530.5 57L534 58.5L538 60.5L541.5 62.5C541.5 62.5 544 64.5 545 64.5C546 64.5 547 66 548 66.5C550 67.5 560.767 76 561.5 77C562.233 78 563 78.5009 563 80L564 82.5L565 84.5L566 88L567 90L568 92L569.5 93.5L571 95L573 96.5L574.5 98L576 100.5V106.5V111L576.75 122V134V147.999L576 159.999L575.5 171.499L575 182.999L574 192.499V215.999V244.999V258.999V284.499L576 307.999L574 324.405L576 354.999L578 390.5L575 396L568 395L558.5 396L544 397.656H531.5H522.5H514L509.5 398.5L504.5 401.5L500 407L498 413V418L496.5 422.5L495.5 418L493.5 410.5L490.438 404.5L476.5 400.5L466 399.5H459.5L448.5 398.5H437.5L420.5 399.5L410 400.5L401.5 401.5L393 404.5L388 406L385 408.5V412V414.5L381.5 412L375.5 406L362.5 404.5H336.5L300 406H274H227.75V339V298.5V266.5L224.75 212.5V148C224.75 121.333 221.333 114 230.5 101.5C239.667 89.0001 240.5 91.0001 246 80.0001C247.25 76.2501 261.5 68.0001 264 65.0001L271 60.5001L280 55.0001L293 51.5001L303 48.5001L309 46.0001L312 42.0001V38.0001L312.5 32.0001L310.5 26.0001L308 21.5001L302 18.5001H290.75H270H246H223H199.5H178.5H159.5H137L111.5 15.5001L90 10.5001L75.5 8.50012L62 6.50012H46H32.5L25 8.50012L18.5 13.5001L13 19.0001L9 25.0001L4.5 33.0001L1 43.5001L0.5 47.0001V51.5001L0 55.0001L1 59.0001L2 62.0001L3.5 65.0001L7 67.5001L12 69.2501L20.5 71.0001L29.75 71.8751L38.625 73.1876L47.5 74.5001L58.5 75.5001L69.5 76.5001L79 78.0001H95C96 78.0001 123.5 83.102 123.5 87.5001C123.5 93.0001 109.5 83.7501 109.5 93.0001C118.667 105.5 113.25 126.333 113.25 153L114.5 182.75L115.75 212.5V242.5L114.25 266.5L117.25 330V365.5L121.25 403V476L117.25 521L115.25 560L118.25 633.5L120.5 655V666.5V677.5L122.75 685.5L125 693.5L126.5 712.999C126.5 720.499 132.156 739 130.406 751C130.406 760.5 130.406 755.5 130.406 766C130.406 772.727 129 776 126.5 780L115.5 785.5H105.5L84.9375 790L54.75 794.25L31.5 796.75L10.5 799L3.5 803L1 814V824L5.5 835.5L10.5 844L18.5 853.5L28 861.5L44.5 863L62.5 861.5L84.9375 858.5L105.5 855.5L122.75 853.5L141 851H156H176.5H201H219.5H243.5H270H292L303 850.5L310 847.5L311.5 843.5L312.5 839.5L313.5 834V827.5L310 822.5L304.5 819.5L297 817H290.25L276.5 810.5L261.5 803C255.5 794.25 250 789.5 250 783C250 776.5 239 758.5 239 751C239 743.5 235.25 735.333 235.25 709.5L234 703.5L232.5 699L230.5 694.5L228 690.5L223.5 687.5L219.5 686.5L215.5 685.5L210 684L208 682V679L208.5 676.5L211.5 674L213 673L215.5 672L218.5 671L223.5 669.5L226.5 668.5L229.5 666.5L231.5 662.5L233 656.5L234.5 654.5L235.25 652.5V633.5V557.5L234.781 551.156L234.313 544.813L233.844 538.469L233.375 532.125L232.906 525.781L232.438 519.438L233.375 512L232.906 507.5L231.5 505L228.688 503.5H226H223.5L220.5 505L217.5 506.5L214.5 507.5L211.5 506.5L209.5 505L208 503.5V501.5V499.5L210.5 498L213.5 496.5L217.5 495L220.5 494.5L223.5 493.5L226 492.5L228.688 491L229.156 489L229.625 487.875L227 485L225.5 484.5L224.5 484L223.5 483L222 481.5L221 480L219.5 478.5L217 474.5L216 473L217 471L217.5 469.5L219.5 468L222 466.5L225.5 467.5L226.5 468L227 467.5H228.5L241.5 465.999H263.5L300 461.499H324.5L359.094 458.499H383L406 456.499L427 453.749L451 453.187L487.5 453.749L511 456.499L526 458.499L544 461.499L558.5 463.499H571.5H582V468.999V487.499L581 507.499L579.5 544.499L576.5 580.499V614.656V652.937L578 691.218V710.359V729.499C578 755.333 578 759 578 764.5C578 770 578 779.5 575.5 784.5C573 789.5 575.5 792 575.5 800L574.5 808L572.5 812.5L567 816L560.5 820L554 823L548 826L542.5 828L536 830.5L528.953 831.5L524 833L520 834.5L517.5 837L516 839.5L515 844.5L516 849.5L517.5 853.5L520 856.5L524 858H528.953H534L540.5 860H548H554.5H563H570.5L578 861H585L599 862L612 863H619.5L629.5 862H642L653.5 861.5L664 861H673L682 860L693 856.5Z" fill="#ff003c"/>
</svg>
